<?xml version="1.0" standalone="no"?><!DOCTYPE svg PUBLIC "-//W3C//DTD SVG 1.1//EN" "http://www.w3.org/Graphics/SVG/1.1/DTD/svg11.dtd"><svg t="1487662801414" class="icon" style="" viewBox="0 0 1024 1024" version="1.1" xmlns="http://www.w3.org/2000/svg" p-id="15980" xmlns:xlink="http://www.w3.org/1999/xlink" width="70" height="70"><defs><style type="text/css"></style></defs><path d="M71.717392 4.03592l81.412194 914.635173 370.868679 104.643292 373.292892-104.610546L978.706421 4.034896H71.717392z m777.742386 874.934986l-325.413417 91.192955-323.08028-91.159186-73.326029-823.803445h795.144732l-73.325006 823.769676z" p-id="15981" fill="#bfbfbf"></path><path d="M794.525632 472.837048H309.656549l-23.423479-239.897765h506.159992v-51.16531H229.828432l33.415041 342.228385h479.622592l-22.984481 207.267601-201.316051 55.511291-189.276855-55.084572-11.872398-150.430105-51.005674 4.024664 14.651698 185.659466 239.175311 69.604265 28.686343-9.070586 217.989802-60.10696L794.34553 524.002358h0.180102v-1.620917l0.430812-3.894703-0.430812-0.047072z" p-id="15982" fill="#bfbfbf"></path></svg>