<?xml version="1.0" encoding="utf-8"?>
<!-- Generator: Adobe Illustrator 17.0.0, SVG Export Plug-In . SVG Version: 6.00 Build 0)  -->
<!DOCTYPE svg PUBLIC "-//W3C//DTD SVG 1.1//EN" "http://www.w3.org/Graphics/SVG/1.1/DTD/svg11.dtd">
<svg version="1.1" id="图层_1" xmlns="http://www.w3.org/2000/svg" xmlns:xlink="http://www.w3.org/1999/xlink" x="0px" y="0px"
	 width="197px" height="59px" viewBox="0 0 197 59" enable-background="new 0 0 197 59" xml:space="preserve">
<g>
	<path fill="#222222" d="M30.754,24.047l-16.4-16.4l-0.707,0.707l16.4,16.4C30.266,24.502,30.502,24.266,30.754,24.047z"/>
	<path fill="#222222" d="M39.913,34.62l16.734,16.734l0.707-0.707L40.62,33.913C40.401,34.165,40.165,34.401,39.913,34.62z"/>
	<path fill="#222222" d="M30.206,34.087l-16.56,16.559l0.707,0.707l16.58-16.58C30.673,34.564,30.433,34.332,30.206,34.087z"/>
	<path fill="#222222" d="M40.774,24.933l16.58-16.58l-0.707-0.707l-16.56,16.56C40.332,24.433,40.564,24.673,40.774,24.933z"/>
</g>
<g enable-background="new    ">
	<path fill="#2B2B2B" d="M33.893,1.107v10.318h5.657v1.273H32.48V1.107H33.893z"/>
</g>
<g enable-background="new    ">
	<path fill="#2B2B2B" d="M36.433,53.871c0.71,1.022,1.412,2.073,2.105,3.153h0.052c-0.075-1.126-0.113-2.275-0.113-3.447v-6.169
		h1.421V59h-1.412l-4.548-6.463c-0.786-1.126-1.487-2.178-2.105-3.153H31.78c0.075,1.057,0.112,2.29,0.112,3.699V59H30.48V47.408
		h1.404L36.433,53.871z"/>
</g>
<g enable-background="new    ">
	<path fill="#2B2B2B" d="M59.647,34.232V22.641h1.412v11.592H59.647z"/>
</g>
<g enable-background="new    ">
	<path fill="#2B2B2B" d="M15.561,29.546h-2.642v-1.274h4.054v5.605c-0.121,0.063-0.299,0.129-0.533,0.195s-0.501,0.129-0.801,0.187
		s-0.623,0.104-0.966,0.139c-0.344,0.034-0.683,0.052-1.018,0.052c-0.994,0-1.87-0.136-2.629-0.407
		c-0.76-0.271-1.396-0.655-1.91-1.152c-0.514-0.497-0.904-1.101-1.17-1.811c-0.266-0.711-0.398-1.502-0.398-2.374
		c0-0.947,0.146-1.808,0.437-2.582c0.291-0.773,0.713-1.435,1.265-1.983c0.552-0.549,1.219-0.972,2.002-1.27
		c0.783-0.297,1.645-0.446,2.586-0.446c0.254,0,0.508,0.011,0.763,0.03c0.254,0.021,0.497,0.05,0.728,0.087
		c0.231,0.038,0.445,0.082,0.641,0.135c0.196,0.052,0.361,0.106,0.494,0.164v1.248c-0.346-0.116-0.745-0.213-1.195-0.291
		c-0.451-0.077-0.901-0.116-1.352-0.116c-0.658,0-1.287,0.1-1.884,0.299s-1.125,0.501-1.581,0.905
		c-0.457,0.404-0.82,0.911-1.092,1.521s-0.407,1.324-0.407,2.144c0,0.803,0.113,1.496,0.338,2.079
		c0.226,0.584,0.544,1.066,0.957,1.447s0.913,0.663,1.501,0.845c0.588,0.182,1.243,0.272,1.962,0.272
		c0.333,0,0.663-0.017,0.987-0.052c0.325-0.034,0.613-0.083,0.865-0.147V29.546z"/>
</g>
<g enable-background="new    ">
	<path fill="#212121" d="M81.342,13.745l-0.107-0.43c0.394-0.196,1.182-0.581,2.363-1.154s2.386-1.347,3.612-2.323
		c1.227-0.976,2.211-1.96,2.954-2.954c0.743-0.993,1.177-1.678,1.303-2.055c0.125-0.375,0.188-0.626,0.188-0.752l-0.027-0.43
		l0.269-0.107l1.316,1.263l-0.43,0.296c1.432,1.199,2.869,2.296,4.31,3.289c1.441,0.994,2.511,1.656,3.209,1.987
		c0.698,0.332,1.916,0.587,3.652,0.766v0.376l-3.625,0.645c-0.591-0.591-1.195-1.146-1.813-1.665
		c-0.618-0.52-1.133-0.94-1.544-1.263L95.36,8.051L93.937,6.87l-1.611-1.262c-0.806,1.021-1.526,1.889-2.162,2.605
		c-0.635,0.716-1.62,1.57-2.954,2.564C85.876,11.771,83.92,12.76,81.342,13.745z M81.637,23.118l0.349-0.269
		c0.376-0.286,1.231-1.034,2.565-2.242c1.333-1.209,2.202-2.1,2.604-2.673c0.403-0.572,0.729-1.127,0.98-1.664
		c-0.896,0.107-1.755,0.268-2.578,0.482l-0.806-0.51c-0.144-0.071-0.219-0.139-0.229-0.201c-0.009-0.063,0.13-0.112,0.417-0.148
		l1.182-0.107l1.396-0.134l2.524-0.322l-0.161-0.269c-0.036-0.036-0.09-0.135-0.161-0.295c-0.072-0.162-0.161-0.336-0.269-0.524
		c-0.107-0.188-0.224-0.366-0.349-0.537c-0.125-0.17-0.188-0.264-0.188-0.282l-0.242-0.375c-0.251,0.035-0.475,0.098-0.671,0.188
		l-0.752-0.537c-0.197-0.125-0.291-0.201-0.282-0.229c0.009-0.026,0.031-0.066,0.067-0.121l0.698-0.026l1.155-0.134L90.473,12
		l1.477-0.188v-1.557c-1.361,0.232-2.193,0.402-2.498,0.51L88.7,10.2c-0.251-0.179-0.224-0.286,0.081-0.322l0.994-0.107l0.752-0.08
		l1.101-0.135c1.289-0.143,2.211-0.385,2.766-0.725l0.967,0.564c0.161,0.107,0.232,0.196,0.215,0.268
		c-0.018,0.072-0.188,0.126-0.51,0.162l-1.182,0.134l-1.021,0.161v1.531c1.772-0.27,2.927-0.528,3.464-0.779l0.779,0.537
		c0.304,0.232,0.358,0.358,0.161,0.376l-0.322,0.054l-0.671,0.08l-0.591,0.107l0.483,0.833c0.107,0.197,0.157,0.318,0.148,0.362
		c-0.009,0.045-0.144,0.161-0.403,0.35c-0.259,0.188-0.595,0.56-1.007,1.114c0.43-0.054,1.038-0.13,1.826-0.229
		c0.788-0.098,1.521-0.3,2.202-0.604l1.101,0.699c0.161,0.125,0.232,0.224,0.215,0.295s-0.09,0.107-0.215,0.107l-2.041,0.188
		l-1.396,0.135l0.564,0.832l0.215,0.322l-0.269,0.242l-0.322,0.269c0.984,1.164,1.84,2.055,2.565,2.672
		c0.726,0.618,1.316,1.07,1.772,1.356c0.457,0.286,1.249,0.457,2.377,0.51l0.537,0.027v0.43l-3.115,0.43l-0.537-0.591l-0.752-0.833
		c-2.078-2.22-3.169-3.393-3.277-3.518c-0.645,1.074-1.468,2.193-2.471,3.357l0.403-0.055l0.483-0.08l1.021-0.135
		c0.376-0.035,1.065-0.205,2.068-0.51l0.886,0.591c0.054,0.054,0.076,0.112,0.067,0.175c-0.009,0.063-0.058,0.094-0.147,0.094
		l-1.907,0.215l0.027,1.854c0.322-0.055,0.725-0.121,1.208-0.202c0.483-0.08,0.967-0.228,1.45-0.442l0.833,0.671
		c0.071,0.071,0.111,0.139,0.121,0.201c0.009,0.063-0.095,0.104-0.31,0.121l-1.558,0.161l-1.799,0.242v3.33l0.725-0.055
		c0.161-0.304,0.367-0.752,0.618-1.342c0.25-0.592,0.385-0.967,0.403-1.129l0.027-0.51l0.269-0.135l0.538,0.94
		c0.161,0.305,0.237,0.466,0.229,0.483c-0.01,0.018-0.126,0.111-0.35,0.282c-0.224,0.17-0.578,0.613-1.061,1.329
		c1.343-0.144,2.319-0.34,2.927-0.591l0.967,0.698l0.188,0.135c0.035,0.053,0.049,0.103,0.04,0.147
		c-0.009,0.044-0.022,0.076-0.04,0.094h-0.43l-1.611,0.107c-4.369,0.43-7.019,0.734-7.95,0.913l-0.94-0.645
		c-0.107-0.054-0.157-0.112-0.148-0.175c0.009-0.063,0.085-0.103,0.229-0.12l0.752-0.027h0.752l1.531-0.107l-0.215-0.564
		l-0.295-0.697c-0.107-0.27-0.179-0.439-0.215-0.511l-0.188-0.269l-0.161-0.376l0.188-0.241l0.322,0.268l0.645,0.592l0.457,0.402
		c0.107,0.125,0.166,0.232,0.174,0.322c0.009,0.09-0.013,0.188-0.067,0.295l-0.349,0.752l1.182-0.16l-0.027-3.33
		c-0.824,0.143-1.594,0.286-2.31,0.43l-0.752-0.537c-0.125-0.072-0.192-0.139-0.202-0.202c-0.009-0.063,0.103-0.103,0.336-0.12
		l0.698-0.055l1.074-0.107l1.182-0.134v-1.853c-0.877,0.179-1.406,0.286-1.584,0.322l-0.591-0.537
		c-0.161,0.143-0.269,0.241-0.322,0.295s-0.215,0.224-0.483,0.51l-0.483,0.511c-0.179,0.197-0.278,0.305-0.295,0.322l-0.161,0.161
		c0.107,0.107,0.157,0.184,0.147,0.229c-0.009,0.045-0.031,0.076-0.067,0.094l-0.322,0.027l-1.101,0.134l0.43,0.833l0.215,0.375
		c-0.018,0.036-0.134,0.107-0.349,0.215s-0.546,0.601-0.994,1.478l2.336-0.537l0.081,0.403l-5.801,1.557
		c-0.896,0.251-1.701,0.528-2.417,0.833l-1.021-0.726c-0.107-0.071-0.166-0.125-0.175-0.16c-0.009-0.036,0.076-0.072,0.255-0.107
		l0.671-0.081l2.793-0.511l-0.188-0.375l-0.564-1.129l-0.269-0.375l-0.215-0.35l0.215-0.242l1.396,1.021
		c0.089,0.089,0.143,0.16,0.161,0.215c0.018,0.053,0,0.215-0.054,0.482l-0.161,0.699l0.913-0.215v-2.928
		c-1.253,0.197-2.185,0.385-2.793,0.564l-0.779-0.511c-0.144-0.09-0.219-0.161-0.228-0.215c-0.009-0.054,0.111-0.099,0.362-0.134
		l1.101-0.107l1.316-0.162l1.047-0.16l-0.027-1.746c-1.039,0.179-1.567,0.269-1.584,0.269l-0.537,0.161l-0.43,0.107l-0.618-0.457
		c-0.376,0.322-0.81,0.672-1.303,1.048c-0.492,0.376-0.819,0.618-0.98,0.726s-0.251,0.17-0.269,0.188l-0.242,0.188L81.637,23.118z
		 M86.042,20.727l0.913-0.134l0.994-0.161c1.002-0.161,1.772-0.376,2.31-0.645l0.967,0.645c0.054,0.054,0.085,0.104,0.094,0.147
		c0.009,0.045-0.023,0.085-0.094,0.121l-0.859,0.081l-0.859,0.134l-0.779,0.107v1.772c0.734-0.09,1.231-0.161,1.49-0.215
		c0.26-0.054,0.56-0.179,0.9-0.376l0.43,0.376l0.322-0.35c0.716-0.77,1.463-1.714,2.243-2.833c0.778-1.118,1.266-1.942,1.463-2.471
		c0.197-0.527,0.358-1.061,0.483-1.598l-7.17,0.886l0.51,0.43c0.197,0.18,0.291,0.282,0.282,0.31
		c-0.009,0.026-0.085,0.08-0.228,0.161c-0.144,0.08-0.34,0.237-0.591,0.47l0.725,0.269l1.235,0.43l1.021,0.322
		c0.43,0.144,0.645,0.376,0.645,0.698v0.752c0,0.071,0,0.175,0,0.309c0,0.135-0.027,0.211-0.081,0.229s-0.17-0.063-0.349-0.241
		l-0.618-0.537c-0.52-0.448-1.54-1.093-3.062-1.934c-0.483,0.447-0.9,0.846-1.249,1.194c-0.35,0.35-0.587,0.577-0.712,0.685
		l-0.671,0.592l-0.457,0.43L86.042,20.727z M88.673,23.494v2.981l0.591-0.135c0.054-0.179,0.098-0.322,0.134-0.43l0.295-0.752
		c0.018-0.071,0.076-0.277,0.175-0.617c0.098-0.341,0.156-0.547,0.174-0.618l0.054-0.618L88.673,23.494z M90.473,15.276l1.477-0.188
		v-2.525l-1.477,0.188l-1.343,0.215l0.645,0.403l0.564,0.375c0.161,0.126,0.25,0.215,0.269,0.27
		c0.018,0.053,0.009,0.215-0.027,0.482L90.473,15.276z M92.836,14.981l1.343-0.188c0.25-0.43,0.47-0.882,0.658-1.356
		c0.188-0.474,0.291-0.792,0.309-0.953l0.027-0.376l-2.336,0.296V14.981z"/>
	<path fill="#212121" d="M109.755,11.329l-1.047-0.645c-0.215-0.126-0.296-0.211-0.242-0.256c0.054-0.044,0.251-0.076,0.591-0.094
		c0.842-0.018,2.193-0.17,4.056-0.457l1.584-0.241c1.379-0.197,2.444-0.501,3.196-0.913l1.262,0.779
		c0.09,0.071,0.139,0.156,0.148,0.255c0.009,0.099-0.05,0.147-0.175,0.147l-0.779,0.08l-0.859,0.081l-1.074,0.188
		c-0.251,0.053-1.141,0.17-2.672,0.349C112.213,10.782,110.883,11.024,109.755,11.329z M116.684,12.403l1.074,0.697
		c0.09,0.072,0.13,0.148,0.121,0.229c-0.009,0.081-0.05,0.121-0.121,0.121l-0.456,0.08l-0.779,0.107
		c-2.077,0.305-3.518,0.601-4.323,0.887l-1.021-0.779c-0.144-0.089-0.18-0.151-0.107-0.188c0.071-0.036,0.366-0.063,0.886-0.08
		c0.52-0.019,1.029-0.081,1.531-0.188l1.423-0.269C115.502,12.913,116.093,12.707,116.684,12.403z M116.926,15.544l1.047,0.726
		c0.09,0.071,0.13,0.139,0.121,0.201s-0.059,0.094-0.147,0.094l-0.591,0.08c-2.614,0.358-4.36,0.672-5.237,0.94l-0.939-0.671
		c-0.233-0.162,0.018-0.27,0.752-0.322c0.733-0.055,1.289-0.117,1.665-0.188l1.289-0.241
		C115.672,16.019,116.353,15.813,116.926,15.544z M112.709,20.164l2.793-0.43l0.833-0.134l0.563-0.887
		c0.071-0.125,0.188-0.125,0.35,0l0.859,0.725c0.089,0.09,0.147,0.162,0.175,0.215c0.026,0.055,0.021,0.107-0.014,0.162
		c-0.036,0.035-0.13,0.107-0.282,0.215s-0.273,0.268-0.362,0.482c-0.09,0.215-0.152,0.502-0.188,0.859
		c-0.036,0.358-0.09,0.878-0.161,1.559l-0.134,1.262l0.806,0.698c0.089,0.09,0.121,0.166,0.094,0.229
		c-0.026,0.063-0.067,0.094-0.121,0.094l-0.483,0.054c-0.591,0.054-2.05,0.242-4.377,0.564l-0.027,1.074l-0.026,0.537
		c-0.019,0.304-0.031,0.51-0.04,0.617c-0.01,0.107-0.05,0.179-0.121,0.215c-0.072,0.036-0.161-0.018-0.269-0.161
		s-0.197-0.313-0.269-0.511l-0.242-0.563c-0.107-0.215-0.206-0.403-0.295-0.563c-0.09-0.162-0.126-0.287-0.107-0.377
		c0-0.035,0.04-0.134,0.121-0.295c0.08-0.161,0.134-0.309,0.161-0.443c0.026-0.134,0.049-0.349,0.066-0.645
		c0.018-0.295,0.027-0.515,0.027-0.658l-0.027-1.719l-0.054-1.074l-0.026-0.912c-0.036-0.484-0.117-1.093-0.242-1.826l0.403-0.107
		L112.709,20.164z M113.005,25.051l2.229-0.376l0.994-0.188l0.269-4.001l-3.626,0.563L113.005,25.051z M113.166,4.426l0.43-0.295
		c0.269,0.34,0.555,0.676,0.859,1.007c0.304,0.331,0.492,0.523,0.563,0.577l0.591,0.698c0.125,0.161,0.192,0.277,0.202,0.349
		c0.009,0.072-0.014,0.206-0.067,0.403l-0.135,0.43l-0.188,0.483c-0.144,0.34-0.282,0.56-0.416,0.658
		c-0.135,0.099-0.22,0.058-0.256-0.121l-0.215-0.752C114.195,6.736,113.738,5.59,113.166,4.426z M121.599,16.726l0.778-4.458
		c-0.77,0.144-1.352,0.286-1.745,0.43l-1.074-0.859c-0.054-0.036-0.085-0.071-0.094-0.107c-0.01-0.036,0.021-0.071,0.094-0.107
		c0.035-0.018,0.13-0.022,0.282-0.014c0.151,0.01,0.782-0.058,1.893-0.201l0.859-0.107l0.591-3.76
		c-0.842,0.107-1.835,0.269-2.98,0.483l-1.074-0.778c-0.072-0.036-0.104-0.081-0.094-0.135c0.009-0.054,0.272-0.09,0.792-0.107
		c0.519-0.018,1.558-0.125,3.115-0.322l2.793-0.35c1.324-0.16,2.363-0.465,3.115-0.912l1.45,0.967
		c0.107,0.089,0.156,0.165,0.147,0.228c-0.009,0.063-0.059,0.095-0.147,0.095l-0.564,0.08c-0.125,0.018-0.421,0.04-0.886,0.067
		c-0.466,0.026-1.97,0.21-4.512,0.55l-0.698,3.733l1.665-0.269l1.235-0.269l0.456-0.752c0.071-0.144,0.188-0.152,0.35-0.026
		l0.993,0.859c0.018,0.035,0.041,0.08,0.067,0.134c0.027,0.054,0.045,0.099,0.054,0.134c0.009,0.036-0.005,0.072-0.04,0.107
		c-0.036,0.055-0.152,0.152-0.35,0.296s-0.322,0.322-0.376,0.537s-0.107,0.582-0.161,1.101l-0.161,1.074l-0.269,1.988l1.263-0.162
		c0.895-0.107,1.763-0.331,2.604-0.671l1.396,0.967c0.071,0.071,0.104,0.147,0.095,0.229c-0.01,0.08-0.086,0.12-0.229,0.12
		l-1.048,0.055c-0.645,0.035-2.457,0.215-5.438,0.537c-2.981,0.322-4.669,0.515-5.063,0.577c-0.395,0.063-0.878,0.175-1.45,0.335
		l-1.128-0.752c-0.18-0.107-0.215-0.205-0.107-0.295c0.447-0.036,0.761-0.049,0.939-0.04s0.672-0.031,1.478-0.121L121.599,16.726z
		 M120.873,18.875l0.672,1.987l4.404-0.564l0.967-0.16l0.617-0.859c0.107-0.144,0.232-0.152,0.376-0.027l1.021,0.967
		c0.09,0.107,0.135,0.179,0.135,0.215c-0.019,0.054-0.054,0.104-0.107,0.147c-0.054,0.045-0.175,0.121-0.362,0.229
		c-0.188,0.107-0.322,0.322-0.403,0.645c-0.08,0.322-0.139,0.636-0.175,0.94l-0.188,1.262l-0.296,1.772l1.021,0.726
		c0.125,0.107,0.17,0.201,0.135,0.281c-0.036,0.081-0.099,0.121-0.188,0.121l-0.832,0.08c-0.717,0.072-2.659,0.251-5.828,0.537
		l-0.054,1.182v0.592c-0.054,0.733-0.215,0.859-0.483,0.375l-0.269-0.456l-0.215-0.511c-0.251-0.555-0.367-0.85-0.349-0.886
		c0-0.018,0.044-0.121,0.134-0.309c0.09-0.188,0.152-0.479,0.188-0.873c0.035-0.394,0.054-0.806,0.054-1.235l-0.054-2.202
		c-0.019-0.358-0.04-0.743-0.067-1.155c-0.026-0.411-0.05-0.725-0.067-0.939s-0.09-0.788-0.215-1.719L120.873,18.875z
		 M121.813,26.313l3.706-0.482l0.993-0.215l0.537-4.512l-5.317,0.671L121.813,26.313z M122.646,16.592l3.384-0.403l0.591-4.619
		l-3.169,0.537L122.646,16.592z"/>
	<path fill="#212121" d="M145.178,8.938l1.154,0.779c0.179,0.143,0.232,0.25,0.161,0.322c-0.071,0.071-0.17,0.107-0.295,0.107
		l-0.591,0.053c-0.573,0.055-1.92,0.247-4.042,0.578c-2.121,0.331-3.576,0.613-4.364,0.846l-1.208-0.752
		c-0.126-0.071-0.188-0.135-0.188-0.188v-0.055c0-0.018,0-0.035,0-0.053c0-0.019,0.036-0.036,0.107-0.055
		c0.447,0.019,1.826-0.143,4.136-0.482l1.639-0.242C143.423,9.546,144.587,9.26,145.178,8.938z M144.076,12.537l1.074,0.645
		c0.144,0.09,0.211,0.175,0.202,0.255c-0.01,0.081-0.104,0.13-0.282,0.148l-0.672,0.107c-2.22,0.357-3.576,0.586-4.068,0.685
		s-0.98,0.228-1.464,0.39l-1.074-0.699c-0.054-0.018-0.094-0.053-0.12-0.107c-0.027-0.053-0.032-0.098-0.014-0.134
		c0.018-0.036,0.139-0.063,0.362-0.081c0.224-0.018,0.944-0.116,2.162-0.295l1.289-0.188
		C142.366,13.136,143.234,12.895,144.076,12.537z M144.345,15.652l0.913,0.618c0.018,0.035,0.063,0.094,0.135,0.174
		c0.071,0.081,0.111,0.152,0.121,0.215c0.009,0.063-0.059,0.094-0.202,0.094l-0.563,0.055c-2.597,0.25-4.512,0.608-5.747,1.074
		l-0.967-0.726c-0.09-0.054-0.147-0.107-0.175-0.161c-0.026-0.054-0.022-0.099,0.014-0.135c0.018-0.018,0.309-0.04,0.873-0.066
		c0.563-0.027,1.239-0.121,2.027-0.282l1.423-0.269C143.056,16.082,143.771,15.884,144.345,15.652z M138.651,18.471l0.887,1.692
		l3.732-0.563l0.483-0.859c0.071-0.144,0.135-0.229,0.188-0.256c0.054-0.026,0.179,0.031,0.376,0.175l0.886,0.752
		c0.125,0.125,0.161,0.241,0.107,0.349c-0.018,0.019-0.125,0.104-0.322,0.256s-0.34,0.438-0.43,0.859s-0.152,0.882-0.188,1.383
		l-0.188,1.88l0.779,0.645c0.107,0.107,0.184,0.192,0.229,0.255c0.044,0.063-0.032,0.104-0.229,0.121l-0.591,0.08l-1.289,0.107
		c-0.305,0.036-1.388,0.197-3.25,0.484l-0.026,1.638c-0.019,0.608-0.126,0.859-0.322,0.752c-0.126-0.054-0.278-0.251-0.457-0.591
		l-0.241-0.43c-0.305-0.52-0.448-0.814-0.43-0.887c0-0.018,0.044-0.098,0.134-0.241s0.166-0.39,0.229-0.738
		c0.063-0.35,0.094-0.577,0.094-0.685v-1.881c0-0.877-0.188-2.246-0.563-4.108L138.651,18.471z M139.807,24.89
		c1.199-0.161,2.345-0.358,3.438-0.591l0.215-3.813l-3.813,0.645L139.807,24.89z M140.531,4.561
		c0.501,0.465,1.048,1.011,1.639,1.638l0.645,0.698c0.179,0.215,0.264,0.376,0.255,0.483s-0.067,0.322-0.175,0.645l-0.322,0.886
		c-0.161,0.412-0.295,0.439-0.402,0.081l-0.161-0.456c-0.18-0.484-0.806-1.684-1.88-3.6L140.531,4.561z M142.116,29.294
		c3.258-1.809,5.38-3.259,6.364-4.351l1.665-1.772c-1.486-1.79-2.39-2.829-2.712-3.115s-0.654-0.528-0.994-0.726v-0.375l1.665,0.107
		c0.286,0.752,1.146,1.889,2.578,3.41c0.608-0.949,1.057-1.683,1.343-2.202s0.716-1.549,1.289-3.089
		c-3.025,0.412-5.066,0.797-6.123,1.155l-1.074-0.778c-0.107-0.055-0.165-0.104-0.174-0.148c-0.01-0.044-0.005-0.085,0.013-0.121
		c0.018-0.035,0.515-0.084,1.491-0.147c0.976-0.063,2.331-0.264,4.068-0.604l1.799-0.349l0.591-0.778
		c0.054-0.072,0.107-0.112,0.161-0.121s0.161,0.058,0.322,0.201l1.102,1.021c0.107,0.107,0.143,0.206,0.107,0.296
		c-0.019,0.035-0.139,0.134-0.362,0.295c-0.225,0.161-0.376,0.282-0.457,0.362c-0.08,0.081-0.152,0.18-0.215,0.296
		s-0.349,0.698-0.859,1.745c-0.51,1.048-1.285,2.306-2.323,3.773c1.862,1.934,3.24,3.142,4.136,3.626
		c0.896,0.482,2.301,0.787,4.217,0.912v0.511c-0.645,0.071-1.119,0.125-1.424,0.161l-1.934,0.269l-1.53,0.188
		c-1.576-1.988-2.91-3.635-4.002-4.941c-1.701,1.629-3.065,2.761-4.095,3.396c-1.03,0.636-2.458,1.438-4.284,2.404L142.116,29.294z
		 M149.636,6.736l2.686-0.483l0.617-0.859c0.107-0.144,0.192-0.219,0.256-0.229c0.063-0.009,0.156,0.041,0.281,0.148l0.887,0.805
		c0.125,0.126,0.179,0.211,0.161,0.256c-0.019,0.045-0.031,0.08-0.04,0.107c-0.01,0.026-0.081,0.094-0.215,0.201
		c-0.135,0.107-0.256,0.282-0.363,0.523c-0.107,0.242-0.17,0.855-0.188,1.84l-0.081,2.524c-0.036,0.734-0.022,1.28,0.041,1.638
		c0.063,0.358,0.17,0.592,0.322,0.699c0.151,0.107,0.434,0.143,0.846,0.107c0.913-0.036,1.53-0.104,1.853-0.202
		c0.322-0.098,0.542-0.192,0.658-0.282c0.116-0.089,0.192-0.143,0.229-0.16c0.035-0.019,0.17,0.053,0.402,0.215l0.859,0.645
		c0.09,0.089,0.139,0.192,0.148,0.309c0.009,0.116-0.166,0.192-0.524,0.229l-1.262,0.16c-0.107,0.019-0.636,0.045-1.585,0.081
		s-1.71-0.031-2.282-0.201c-0.573-0.17-0.842-0.811-0.806-1.921l0.107-5.666l-2.981,0.457c-0.144,1.504-0.255,2.551-0.335,3.142
		c-0.081,0.591-0.215,1.159-0.403,1.705c-0.188,0.547-0.488,1.119-0.899,1.719c-0.412,0.601-1.048,1.312-1.907,2.136L145.769,16
		c1.235-1.289,1.978-2.555,2.229-3.8c0.251-1.244,0.394-2.287,0.43-3.128c0.036-0.842,0.031-1.486-0.013-1.934
		c-0.045-0.448-0.175-1.129-0.39-2.041l0.43-0.242L149.636,6.736z"/>
	<path fill="#212121" d="M174.934,9.099l1.289,0.913c0.125,0.107,0.161,0.188,0.107,0.242c-0.054,0.053-0.117,0.089-0.188,0.107
		c-0.071,0.018-0.354,0.044-0.846,0.08s-1.249,0.125-2.27,0.269s-2.193,0.291-3.518,0.443c-1.325,0.152-2.561,0.39-3.706,0.712
		l-1.048-0.726c-0.09-0.054-0.134-0.111-0.134-0.175c0-0.063,0.035-0.121,0.107-0.174c0.018,0,0.17-0.01,0.456-0.027
		c1.003-0.018,2.542-0.188,4.619-0.51s3.357-0.537,3.841-0.645S174.558,9.332,174.934,9.099z M173.295,12.537l1.048,0.726
		c0.107,0.089,0.156,0.17,0.147,0.241s-0.067,0.116-0.175,0.134c-0.036,0.019-0.179,0.023-0.43,0.014
		c-0.251-0.009-1.11,0.117-2.578,0.376c-1.468,0.26-2.524,0.488-3.169,0.685l-1.101-0.697c-0.072-0.036-0.112-0.067-0.121-0.095
		c-0.009-0.026-0.005-0.058,0.014-0.094c0.018-0.054,0.81-0.156,2.377-0.309C170.874,13.365,172.203,13.038,173.295,12.537z
		 M173.752,15.544l0.913,0.778c0.125,0.126,0.188,0.206,0.188,0.242c-0.018,0.036-0.058,0.071-0.12,0.107
		c-0.063,0.036-0.206,0.05-0.43,0.04c-0.225-0.009-1.133,0.107-2.727,0.35c-1.594,0.241-2.677,0.47-3.249,0.685l-0.913-0.591
		c-0.107-0.054-0.171-0.107-0.188-0.161s-0.018-0.099,0-0.135c0.018-0.053,0.232-0.089,0.645-0.107
		c0.412-0.018,1.271-0.134,2.578-0.349s2.104-0.358,2.391-0.43C173.125,15.903,173.43,15.759,173.752,15.544z M167.816,18.471
		l0.43-0.107l0.564,1.773l4.001-0.618l0.564-0.833c0.071-0.107,0.196-0.098,0.376,0.027l0.886,0.752
		c0.09,0.09,0.139,0.17,0.148,0.242c0.009,0.071-0.067,0.179-0.229,0.322c-0.305,0.268-0.493,0.707-0.564,1.315l-0.456,3.33
		l0.778,0.591c0.125,0.09,0.17,0.179,0.135,0.269c-0.036,0.09-0.291,0.144-0.766,0.161s-1.348,0.099-2.618,0.242l-1.961,0.241
		l-0.054,1.396c-0.018,0.376-0.04,0.702-0.066,0.98c-0.027,0.277-0.099,0.326-0.215,0.147c-0.117-0.179-0.282-0.457-0.497-0.832
		l-0.215-0.377c-0.269-0.447-0.386-0.742-0.35-0.886c0-0.018,0.045-0.112,0.135-0.282c0.089-0.17,0.156-0.371,0.201-0.604
		c0.045-0.233,0.067-0.556,0.067-0.967l-0.081-3.25c-0.018-0.286-0.031-0.564-0.04-0.832
		C167.982,20.405,167.924,19.671,167.816,18.471z M169.105,25.293l3.491-0.457l0.43-4.458l-4.108,0.645L169.105,25.293z
		 M169.938,4.587l1.745,1.96l0.242,0.27c0.143,0.179,0.255,0.331,0.336,0.456c0.08,0.125,0.125,0.224,0.134,0.296
		c0.009,0.071-0.022,0.215-0.094,0.43l-0.135,0.349c-0.286,0.734-0.537,1.065-0.752,0.993c-0.071-0.018-0.125-0.089-0.161-0.215
		l-0.134-0.402c-0.466-1.343-0.698-2.032-0.698-2.068l-0.859-1.799L169.938,4.587z M179.901,13.852l0.055-4.377
		c0-0.698-0.005-1.388-0.014-2.068c-0.01-0.68-0.054-1.244-0.135-1.691c-0.08-0.447-0.219-1.003-0.416-1.665l0.35-0.241l1.96,1.96
		c-0.251,0.394-0.407,0.726-0.47,0.993c-0.063,0.27-0.107,0.592-0.135,0.967c-0.026,0.377-0.04,0.681-0.04,0.914l-0.081,5.049
		l1.102-0.135c1.307-0.144,2.18-0.282,2.618-0.416c0.438-0.135,0.828-0.318,1.169-0.551l1.423,1.047
		c0.125,0.107,0.17,0.206,0.134,0.296c-0.035,0.054-0.506,0.112-1.409,0.175c-0.904,0.063-1.643,0.121-2.216,0.174l-2.82,0.322
		l-0.16,11.816c-0.036,1.451-0.126,2.498-0.27,3.143c-0.143,0.645-0.43,0.439-0.859-0.617l-0.16-0.377
		c-0.322-0.697-0.457-1.118-0.403-1.262l0.188-0.295c0.179-0.322,0.295-0.694,0.349-1.115s0.09-0.882,0.107-1.383l0.026-1.665
		l0.107-8.11l-0.993,0.135c-0.179,0.035-0.627,0.094-1.343,0.174c-0.717,0.081-1.441,0.237-2.176,0.471l-1.101-0.807
		c-0.107-0.053-0.175-0.129-0.201-0.228c-0.027-0.099,0.075-0.157,0.309-0.175c0.054,0,0.317,0.005,0.792,0.014
		s1.518-0.085,3.129-0.282L179.901,13.852z"/>
</g>
<g enable-background="new    ">
	<path fill="#212121" d="M91.591,46.829c-1.26,1.26-2.417,2.191-3.472,2.795s-2.045,0.905-2.971,0.905
		c-0.756,0-1.368-0.173-1.837-0.519s-0.703-0.797-0.703-1.354c0-0.363,0.113-0.669,0.338-0.919c0.226-0.248,0.502-0.373,0.831-0.373
		c0.27,0,0.486,0.078,0.65,0.232c0.164,0.156,0.246,0.359,0.246,0.611c0,0.223-0.062,0.398-0.185,0.527s-0.287,0.193-0.492,0.193
		c-0.135,0-0.289-0.045-0.461-0.137c-0.173-0.09-0.292-0.136-0.356-0.136c-0.053,0.006-0.092,0.029-0.119,0.07
		s-0.04,0.103-0.04,0.185c0,0.311,0.208,0.589,0.624,0.835s0.923,0.369,1.521,0.369c0.814,0,1.698-0.319,2.65-0.958
		s1.994-1.614,3.125-2.927c1.301-1.5,2.287-2.802,2.958-3.907c0.671-1.104,1.006-1.973,1.006-2.605c0-0.662-0.258-1.196-0.773-1.604
		s-1.195-0.611-2.039-0.611c-0.768,0-1.526,0.12-2.276,0.36s-1.485,0.601-2.206,1.081c-0.896,0.598-1.61,1.266-2.14,2.004
		s-0.795,1.418-0.795,2.039c0,0.551,0.174,0.986,0.523,1.305c0.349,0.32,0.825,0.479,1.428,0.479c0.814,0,1.686-0.341,2.615-1.024
		c0.929-0.682,1.695-1.56,2.298-2.632c0.223-0.393,0.41-0.814,0.563-1.266s0.264-0.677,0.334-0.677c0.023,0,0.047,0.023,0.07,0.07
		s0.035,0.103,0.035,0.167c0,0.053-0.006,0.122-0.018,0.206c-0.012,0.086-0.029,0.184-0.053,0.295
		c-0.105,0.51-0.227,0.963-0.365,1.357c-0.138,0.396-0.28,0.711-0.426,0.945c-0.574,0.943-1.279,1.669-2.114,2.176
		s-1.733,0.76-2.694,0.76c-0.82,0-1.452-0.188-1.894-0.563s-0.664-0.914-0.664-1.617c0-0.604,0.183-1.217,0.549-1.842
		c0.366-0.623,0.916-1.258,1.648-1.902c0.779-0.674,1.677-1.204,2.694-1.591s2.029-0.58,3.037-0.58c0.949,0,1.714,0.267,2.294,0.8
		s0.87,1.236,0.87,2.109c0,0.299-0.035,0.627-0.105,0.984s-0.179,0.756-0.325,1.195c1.488-1.74,2.726-2.991,3.713-3.753
		c0.987-0.762,1.856-1.143,2.606-1.143c0.428,0,0.756,0.107,0.984,0.321s0.343,0.52,0.343,0.918c0,0.328-0.076,0.588-0.229,0.777
		c-0.152,0.191-0.357,0.286-0.615,0.286c-0.188,0-0.343-0.059-0.466-0.176s-0.185-0.261-0.185-0.431c0-0.24,0.097-0.476,0.29-0.707
		s0.29-0.362,0.29-0.392c0-0.053-0.052-0.1-0.154-0.141s-0.227-0.062-0.373-0.062c-0.451,0-1.03,0.236-1.736,0.707
		c-0.706,0.473-1.475,1.142-2.307,2.009c-1.746,1.822-3.141,3.521-4.184,5.098s-1.564,2.733-1.564,3.472
		c0,0.404,0.095,0.703,0.286,0.896s0.479,0.29,0.866,0.29c0.398,0,0.847-0.121,1.345-0.364s1.137-0.661,1.916-1.253
		c0.217-0.158,0.45-0.347,0.699-0.567c0.249-0.219,0.4-0.329,0.453-0.329c0.047,0,0.082,0.013,0.105,0.04
		c0.023,0.025,0.035,0.065,0.035,0.118c0,0.105-0.261,0.369-0.782,0.791l-0.185,0.149c-0.803,0.639-1.488,1.101-2.057,1.385
		c-0.568,0.283-1.09,0.426-1.564,0.426c-0.492,0-0.876-0.127-1.151-0.383c-0.275-0.254-0.413-0.61-0.413-1.067
		c0-0.264,0.053-0.577,0.158-0.94S91.368,47.327,91.591,46.829z"/>
	<path fill="#212121" d="M98.209,47.11c-0.328,0.188-0.658,0.409-0.989,0.663c-0.331,0.256-0.523,0.383-0.576,0.383
		c-0.035,0-0.064-0.012-0.088-0.035s-0.035-0.053-0.035-0.088c0-0.094,0.108-0.223,0.325-0.387l0.009-0.009l0.545-0.413
		c0.662-0.51,1.204-0.889,1.626-1.139c0.422-0.248,0.732-0.373,0.932-0.373c0.264,0,0.476,0.018,0.637,0.053
		s0.242,0.082,0.242,0.141c0,0.041-0.239,0.263-0.717,0.664s-0.921,0.804-1.331,1.208c-0.521,0.51-0.913,0.932-1.173,1.266
		s-0.391,0.571-0.391,0.712c0,0.076,0.023,0.135,0.07,0.176s0.111,0.062,0.193,0.062c0.246,0,0.611-0.123,1.094-0.369
		c0.483-0.246,1-0.58,1.551-1.002c0.217-0.158,0.455-0.347,0.716-0.567c0.261-0.219,0.412-0.329,0.453-0.329
		c0.035,0,0.065,0.015,0.092,0.044s0.04,0.062,0.04,0.097c0,0.111-0.278,0.39-0.835,0.835l-0.193,0.158
		c-0.598,0.486-1.18,0.869-1.745,1.146c-0.565,0.279-1.027,0.418-1.384,0.418c-0.258,0-0.467-0.07-0.628-0.211
		s-0.242-0.322-0.242-0.545c0-0.299,0.149-0.659,0.448-1.081S97.605,47.673,98.209,47.11z M101.76,43.401
		c0-0.164,0.057-0.297,0.171-0.399s0.266-0.154,0.453-0.154c0.193,0,0.347,0.052,0.461,0.154s0.172,0.235,0.172,0.399
		c0,0.176-0.059,0.316-0.176,0.422s-0.27,0.158-0.457,0.158c-0.193,0-0.346-0.053-0.457-0.158S101.76,43.577,101.76,43.401z"/>
	<path fill="#212121" d="M101.435,50.354c-0.053,0.018-0.12,0.031-0.202,0.039c-0.082,0.01-0.22,0.014-0.413,0.014
		c-0.199,0-0.333-0.009-0.4-0.026s-0.101-0.05-0.101-0.097c0-0.105,0.258-0.396,0.773-0.87c0.346-0.322,0.627-0.592,0.844-0.809
		l0.211-0.193c1.184-1.148,1.775-1.808,1.775-1.978c-0.006-0.053-0.018-0.091-0.035-0.114s-0.038-0.035-0.062-0.035
		c-0.164,0-0.374,0.079-0.629,0.237s-0.613,0.439-1.076,0.844c-0.117,0.1-0.258,0.226-0.422,0.378
		c-0.217,0.205-0.36,0.308-0.431,0.308c-0.041,0-0.078-0.015-0.11-0.044s-0.048-0.064-0.048-0.105c0-0.082,0.208-0.308,0.624-0.677
		c0.088-0.076,0.155-0.138,0.202-0.185c0.492-0.434,0.923-0.757,1.292-0.972c0.369-0.213,0.683-0.32,0.94-0.32
		c0.188,0,0.331,0.062,0.431,0.185s0.149,0.308,0.149,0.554c0,0.041-0.003,0.091-0.009,0.149s-0.015,0.144-0.026,0.255
		c0.58-0.404,1.049-0.692,1.406-0.865s0.662-0.26,0.914-0.26c0.188,0,0.335,0.056,0.443,0.167s0.163,0.264,0.163,0.457
		c0,0.211-0.072,0.427-0.216,0.646c-0.144,0.221-0.449,0.553-0.918,0.998c-0.123,0.117-0.299,0.281-0.527,0.492
		c-0.715,0.668-1.072,1.072-1.072,1.213c0,0.064,0.026,0.117,0.079,0.158s0.123,0.062,0.211,0.062c0.258,0,0.634-0.124,1.129-0.374
		c0.495-0.248,1.024-0.587,1.587-1.015c0.24-0.176,0.495-0.381,0.765-0.615s0.431-0.352,0.483-0.352c0.041,0,0.073,0.013,0.097,0.04
		c0.023,0.025,0.038,0.065,0.044,0.118c0,0.105-0.325,0.422-0.976,0.949l-0.044,0.035c-0.645,0.51-1.265,0.917-1.859,1.222
		s-1.05,0.457-1.366,0.457c-0.264,0-0.478-0.073-0.642-0.22s-0.246-0.337-0.246-0.571c0-0.281,0.106-0.589,0.32-0.923
		s0.523-0.674,0.928-1.02c0.129-0.111,0.305-0.261,0.527-0.448c0.545-0.457,0.817-0.727,0.817-0.809
		c0-0.041-0.021-0.076-0.062-0.105s-0.091-0.044-0.149-0.044c-0.334,0-0.986,0.38-1.956,1.138
		C103.624,48.182,102.571,49.158,101.435,50.354z"/>
</g>
<g enable-background="new    ">
	<path fill="#212121" d="M131.345,50.085c-0.559,0.15-1.087,0.262-1.584,0.333c-0.498,0.071-0.962,0.107-1.392,0.107
		c-1.081,0-1.905-0.109-2.471-0.328c-0.565-0.218-0.849-0.531-0.849-0.939c0-0.258,0.107-0.451,0.322-0.58s0.533-0.193,0.956-0.193
		c0.494,0,1.098,0.068,1.811,0.204c0.712,0.136,1.749,0.391,3.109,0.763c0.831-0.315,1.706-0.883,2.627-1.703
		c0.92-0.819,1.938-1.938,3.056-3.356c0.315-0.408,0.773-1.014,1.375-1.815c1.776-2.385,3.201-4.011,4.275-4.877
		c-0.43-0.874-1.027-1.547-1.794-2.02s-1.658-0.709-2.675-0.709c-0.888,0-1.801,0.189-2.739,0.569s-1.837,0.924-2.696,1.633
		c-0.931,0.78-1.683,1.616-2.256,2.509c-0.573,0.891-0.859,1.648-0.859,2.271c0,0.501,0.176,0.908,0.526,1.219
		c0.351,0.313,0.813,0.468,1.386,0.468c1.089,0,2.191-0.446,3.309-1.337c1.117-0.893,2.023-2.064,2.718-3.519
		c0.15-0.322,0.283-0.689,0.397-1.101c0.114-0.412,0.226-0.618,0.333-0.618c0.079,0,0.138,0.021,0.178,0.064
		c0.039,0.043,0.059,0.111,0.059,0.204c0,0.308-0.125,0.77-0.376,1.386s-0.573,1.199-0.967,1.751
		c-0.802,1.146-1.699,2.045-2.69,2.696c-0.992,0.651-1.943,0.978-2.853,0.978c-0.816,0-1.465-0.245-1.944-0.736
		c-0.479-0.49-0.72-1.15-0.72-1.981c0-0.63,0.148-1.285,0.446-1.966c0.297-0.681,0.721-1.347,1.272-1.998
		c0.845-1.003,1.858-1.771,3.04-2.305c1.182-0.533,2.456-0.8,3.824-0.8c1.253,0,2.326,0.243,3.218,0.73s1.652,1.242,2.282,2.267
		c0.479-0.329,0.9-0.589,1.263-0.779c0.361-0.189,0.613-0.284,0.757-0.284c0.064,0,0.125,0.025,0.183,0.075s0.086,0.107,0.086,0.172
		c0,0.058-0.232,0.206-0.698,0.445c-0.466,0.24-0.898,0.539-1.3,0.897c0.114,0.394,0.2,0.79,0.258,1.187
		c0.058,0.398,0.086,0.801,0.086,1.209c0,1.117-0.219,2.229-0.655,3.336c-0.437,1.105-1.081,2.179-1.934,3.217
		c-0.995,1.203-2.073,2.112-3.233,2.729s-2.378,0.924-3.652,0.924c-0.301,0-0.641-0.025-1.021-0.075S132.161,50.25,131.345,50.085z
		 M130.195,49.806c-0.816-0.251-1.564-0.442-2.245-0.575c-0.681-0.132-1.246-0.198-1.697-0.198c-0.193,0-0.348,0.028-0.462,0.086
		s-0.172,0.133-0.172,0.226c0,0.2,0.253,0.359,0.758,0.479c0.505,0.117,1.19,0.177,2.057,0.177c0.394,0,0.73-0.017,1.01-0.048
		C129.723,49.918,129.974,49.87,130.195,49.806z M132.462,49.741c0.243,0.071,0.494,0.125,0.752,0.161s0.526,0.054,0.806,0.054
		c0.952,0,1.873-0.168,2.761-0.505s1.715-0.834,2.481-1.493c1.21-1.038,2.165-2.249,2.863-3.631s1.047-2.739,1.047-4.071
		c0-0.351-0.026-0.698-0.08-1.042s-0.135-0.688-0.242-1.031c-0.487,0.509-1.149,1.454-1.987,2.836s-1.476,2.389-1.912,3.019
		c-1.081,1.562-2.136,2.791-3.163,3.689C134.759,48.626,133.65,49.297,132.462,49.741z"/>
	<path fill="#212121" d="M144.697,48.441c-0.064,0.136-0.112,0.269-0.145,0.397s-0.049,0.243-0.049,0.344
		c0,0.229,0.073,0.408,0.221,0.537c0.146,0.129,0.349,0.193,0.606,0.193c0.451,0,1.003-0.167,1.654-0.499
		c0.651-0.334,1.35-0.805,2.095-1.413c0.193-0.165,0.43-0.374,0.709-0.628c0.279-0.255,0.451-0.382,0.516-0.382
		c0.058,0,0.101,0.017,0.129,0.048c0.028,0.033,0.047,0.081,0.054,0.146c0,0.079-0.097,0.217-0.29,0.413
		c-0.193,0.197-0.53,0.5-1.01,0.908c-0.716,0.608-1.433,1.083-2.148,1.424c-0.716,0.34-1.343,0.51-1.88,0.51
		c-0.516,0-0.928-0.157-1.235-0.473s-0.462-0.745-0.462-1.289c0-0.487,0.154-0.973,0.462-1.455c0.308-0.484,0.756-0.944,1.343-1.381
		c0.516-0.372,0.999-0.651,1.45-0.838s0.87-0.279,1.257-0.279c0.344,0,0.587,0.056,0.73,0.166c0.144,0.111,0.215,0.303,0.215,0.575
		c0,0.552-0.404,1.124-1.214,1.719S145.894,48.198,144.697,48.441z M145.009,47.797c0.967-0.2,1.779-0.522,2.438-0.967
		s0.988-0.859,0.988-1.246c0-0.136-0.025-0.232-0.075-0.29s-0.136-0.086-0.258-0.086c-0.358,0-0.799,0.22-1.321,0.661
		C146.259,46.309,145.668,46.952,145.009,47.797z"/>
	<path fill="#212121" d="M149.735,49.612c0.043,0.144,0.138,0.251,0.285,0.322c0.146,0.071,0.353,0.107,0.617,0.107
		c0.709,0,1.261-0.382,1.654-1.144c0.394-0.764,0.623-1.903,0.688-3.422c-0.681,0.38-1.314,0.818-1.901,1.316
		c-0.587,0.497-0.913,0.746-0.978,0.746c-0.05,0-0.091-0.015-0.123-0.043s-0.049-0.064-0.049-0.107c0-0.15,0.294-0.458,0.881-0.924
		s1.35-0.988,2.288-1.568c0.05-0.415,0.168-0.75,0.354-1.004c0.187-0.255,0.397-0.382,0.634-0.382c0.114,0,0.206,0.038,0.274,0.112
		c0.067,0.076,0.102,0.178,0.102,0.307c0,0.208-0.079,0.415-0.236,0.623s-0.372,0.38-0.645,0.516c0.15,0.229,0.262,0.49,0.333,0.784
		s0.107,0.619,0.107,0.978c0,0.587-0.093,1.103-0.279,1.547s-0.458,0.802-0.816,1.074c0.917-0.365,1.766-0.866,2.546-1.504
		s1.178-0.956,1.192-0.956c0.05,0,0.092,0.018,0.124,0.054s0.048,0.082,0.048,0.14c0,0.107-0.155,0.308-0.467,0.602
		s-0.715,0.605-1.209,0.935c-0.788,0.559-1.57,0.988-2.347,1.289c-0.777,0.301-1.474,0.451-2.09,0.451
		c-0.458,0-0.831-0.104-1.117-0.312s-0.43-0.477-0.43-0.806c0-0.265,0.083-0.481,0.247-0.65c0.165-0.168,0.369-0.252,0.612-0.252
		c0.179,0,0.324,0.054,0.436,0.161c0.11,0.107,0.166,0.243,0.166,0.408c0,0.193-0.064,0.344-0.193,0.451s-0.301,0.161-0.516,0.161
		c-0.058,0-0.101-0.002-0.129-0.006C149.771,49.614,149.75,49.612,149.735,49.612z"/>
	<path fill="#212121" d="M158.2,46.39c-0.401,0.229-0.804,0.499-1.208,0.812c-0.405,0.311-0.64,0.467-0.704,0.467
		c-0.043,0-0.079-0.015-0.107-0.043s-0.043-0.064-0.043-0.107c0-0.114,0.133-0.272,0.397-0.473l0.011-0.011l0.666-0.505
		c0.81-0.623,1.472-1.087,1.987-1.391c0.516-0.305,0.896-0.457,1.139-0.457c0.322,0,0.582,0.021,0.779,0.064
		c0.196,0.043,0.295,0.101,0.295,0.172c0,0.05-0.292,0.32-0.875,0.811c-0.584,0.491-1.127,0.983-1.628,1.478
		c-0.638,0.623-1.115,1.139-1.434,1.547c-0.319,0.408-0.479,0.698-0.479,0.87c0,0.093,0.028,0.165,0.086,0.215
		s0.136,0.075,0.236,0.075c0.301,0,0.747-0.15,1.338-0.451s1.223-0.709,1.896-1.225c0.265-0.193,0.557-0.425,0.876-0.692
		c0.318-0.27,0.503-0.403,0.553-0.403c0.043,0,0.081,0.018,0.113,0.054s0.048,0.075,0.048,0.118c0,0.136-0.34,0.477-1.021,1.021
		l-0.236,0.193c-0.73,0.595-1.441,1.062-2.132,1.402c-0.691,0.34-1.256,0.51-1.692,0.51c-0.315,0-0.571-0.086-0.768-0.258
		c-0.197-0.172-0.296-0.394-0.296-0.666c0-0.365,0.183-0.806,0.548-1.321S157.463,47.077,158.2,46.39z M162.54,41.856
		c0-0.2,0.07-0.363,0.21-0.489c0.14-0.125,0.323-0.188,0.553-0.188c0.236,0,0.425,0.063,0.564,0.188
		c0.14,0.126,0.209,0.289,0.209,0.489c0,0.215-0.071,0.387-0.215,0.516s-0.329,0.193-0.559,0.193c-0.236,0-0.423-0.064-0.559-0.193
		S162.54,42.071,162.54,41.856z"/>
	<path fill="#212121" d="M164.227,50.708c-1.583,1.977-2.9,3.446-3.953,4.409c-1.053,0.964-1.865,1.445-2.438,1.445
		c-0.322,0-0.562-0.088-0.72-0.264c-0.157-0.175-0.236-0.435-0.236-0.778c0-0.795,0.558-1.658,1.671-2.589s2.576-1.726,4.388-2.385
		l0.419-0.548c-0.251,0.122-0.49,0.211-0.72,0.269s-0.451,0.086-0.666,0.086c-0.272,0-0.483-0.101-0.634-0.301
		s-0.226-0.479-0.226-0.838c0-0.479,0.117-0.943,0.35-1.391c0.232-0.448,0.578-0.872,1.036-1.273
		c0.638-0.565,1.313-1.012,2.025-1.338c0.712-0.325,1.341-0.488,1.885-0.488c0.294,0,0.511,0.058,0.65,0.172
		s0.224,0.305,0.252,0.569c0.107-0.122,0.226-0.238,0.354-0.349c0.129-0.111,0.269-0.214,0.419-0.307
		c0.058,0,0.14-0.004,0.247-0.011s0.187-0.011,0.236-0.011c0.251,0,0.43,0.02,0.537,0.059c0.107,0.04,0.161,0.106,0.161,0.199
		c0,0.028-0.535,0.567-1.605,1.617c-1.071,1.049-2.09,2.207-3.057,3.475c0.638-0.058,1.313-0.249,2.025-0.574
		c0.712-0.326,1.47-0.79,2.271-1.392c0.279-0.208,0.589-0.456,0.93-0.747c0.34-0.289,0.542-0.435,0.606-0.435
		c0.05,0,0.092,0.018,0.124,0.054s0.048,0.082,0.048,0.14c0,0.107-0.145,0.294-0.435,0.559s-0.7,0.591-1.23,0.978
		c-0.795,0.58-1.564,1.025-2.31,1.338C165.888,50.369,165.086,50.586,164.227,50.708z M162.433,51.234
		c-1.561,0.673-2.791,1.39-3.689,2.148s-1.349,1.443-1.349,2.052c0,0.193,0.043,0.353,0.129,0.478
		c0.086,0.126,0.197,0.188,0.333,0.188c0.258,0,0.561-0.152,0.908-0.456c0.348-0.305,0.872-0.894,1.573-1.768L162.433,51.234z
		 M164.141,48.742l2.471-2.632c0.086-0.093,0.154-0.189,0.204-0.29s0.075-0.197,0.075-0.29c0-0.079-0.023-0.138-0.069-0.177
		c-0.047-0.04-0.109-0.06-0.188-0.06c-0.243,0-0.567,0.104-0.972,0.312c-0.405,0.208-0.815,0.483-1.23,0.827
		c-0.681,0.565-1.239,1.155-1.676,1.767c-0.437,0.613-0.655,1.065-0.655,1.359c0,0.101,0.03,0.181,0.092,0.242
		c0.061,0.061,0.141,0.091,0.241,0.091c0.187,0,0.436-0.103,0.747-0.306C163.491,49.381,163.812,49.101,164.141,48.742z"/>
	<path fill="#212121" d="M170.436,50.354c-0.064,0.021-0.146,0.037-0.247,0.049c-0.101,0.01-0.269,0.016-0.505,0.016
		c-0.243,0-0.406-0.011-0.488-0.032s-0.124-0.061-0.124-0.118c0-0.129,0.315-0.483,0.945-1.063c0.423-0.394,0.767-0.724,1.031-0.988
		l0.258-0.236c1.446-1.403,2.17-2.209,2.17-2.417c-0.007-0.064-0.021-0.111-0.043-0.14s-0.047-0.043-0.075-0.043
		c-0.2,0-0.456,0.097-0.768,0.29s-0.751,0.537-1.316,1.031c-0.144,0.122-0.315,0.275-0.516,0.462
		c-0.265,0.251-0.44,0.376-0.526,0.376c-0.05,0-0.095-0.018-0.134-0.054c-0.04-0.036-0.06-0.079-0.06-0.129
		c0-0.101,0.254-0.376,0.763-0.827c0.107-0.093,0.189-0.168,0.247-0.226c0.602-0.53,1.128-0.926,1.579-1.187
		c0.451-0.262,0.834-0.393,1.149-0.393c0.229,0,0.404,0.075,0.526,0.226s0.183,0.376,0.183,0.677c0,0.05-0.004,0.111-0.011,0.183
		s-0.018,0.176-0.032,0.312c0.709-0.494,1.282-0.847,1.719-1.059c0.437-0.211,0.81-0.316,1.117-0.316
		c0.229,0,0.41,0.068,0.543,0.204c0.132,0.136,0.198,0.322,0.198,0.559c0,0.258-0.088,0.521-0.263,0.79
		c-0.176,0.268-0.55,0.675-1.123,1.219c-0.15,0.144-0.365,0.344-0.645,0.602c-0.874,0.816-1.311,1.311-1.311,1.482
		c0,0.079,0.032,0.144,0.097,0.193s0.15,0.075,0.258,0.075c0.315,0,0.775-0.152,1.381-0.456c0.604-0.305,1.251-0.719,1.938-1.241
		c0.294-0.215,0.605-0.466,0.935-0.752s0.526-0.43,0.591-0.43c0.05,0,0.09,0.017,0.118,0.048c0.028,0.033,0.047,0.081,0.054,0.146
		c0,0.129-0.397,0.516-1.192,1.16l-0.054,0.043c-0.788,0.623-1.545,1.121-2.271,1.493c-0.728,0.372-1.284,0.559-1.671,0.559
		c-0.322,0-0.584-0.09-0.784-0.269s-0.301-0.412-0.301-0.698c0-0.344,0.131-0.72,0.393-1.128c0.261-0.408,0.639-0.823,1.133-1.246
		c0.157-0.136,0.372-0.318,0.645-0.548c0.666-0.559,0.999-0.888,0.999-0.988c0-0.05-0.025-0.093-0.075-0.129
		s-0.111-0.054-0.183-0.054c-0.408,0-1.205,0.464-2.39,1.392C173.112,47.698,171.825,48.893,170.436,50.354z"/>
</g>
</svg>
