<?xml version="1.0" standalone="no"?><!DOCTYPE svg PUBLIC "-//W3C//DTD SVG 1.1//EN" "http://www.w3.org/Graphics/SVG/1.1/DTD/svg11.dtd"><svg width="100.78125" height="80" viewBox="0 0 100.78125 80" version="1.1" xmlns="http://www.w3.org/2000/svg" xmlns:xlink="http://www.w3.org/1999/xlink"><defs><style type="text/css"><![CDATA[
@font-face { font-family: ifont; src: url(http://at.alicdn.com/t/font_1442373896_4754455.eot?#iefix) format(embedded-opentype), url(http://at.alicdn.com/t/font_1442373896_4754455.woff) format(woff), url(http://at.alicdn.com/t/font_1442373896_4754455.ttf) format(truetype), url(http://at.alicdn.com/t/font_1442373896_4754455.svg#ifont) format(svg); }

]]></style></defs><g class="transform-group"><g transform="scale(0.078125, 0.078125)"><path d="M1130.30637 912.877037L1164.818963 1024l-125.155556-66.74963a595.437037 595.437037 0 0 1-137.02637 22.376297c-217.239704 0-388.28563-144.877037-388.28563-322.74963s171.045926-323.128889 388.28563-323.128889c205.217185 0 387.868444 145.256296 387.868444 323.128889-0.303407 100.124444-68.570074 188.871111-160.199111 256zM776.419556 512a44.562963 44.562963 0 1 0 0 89.125926 45.966222 45.966222 0 1 0 0-89.125926z m251.183407 0a44.562963 44.562963 0 1 0 0 89.125926 45.966222 45.966222 0 1 0 0-89.125926z m-542.340741 150.186667a320.056889 320.056889 0 0 0 14.070519 92.918518c-14.070519 1.137778-28.292741 1.896296-42.628741 1.896296a800.843852 800.843852 0 0 1-159.93363-22.376296l-159.630222 78.127408 45.511111-133.878519C68.342519 601.125926-0.075852 500.622222-0.075852 378.500741c0-211.626667 205.63437-378.121481 456.628148-378.121482 224.521481 0 420.977778 133.12 460.724148 312.130371a422.874074 422.874074 0 0 0-43.994074-2.275556c-216.670815 0-387.982222 157.392593-387.982222 351.952593zM308.375704 189.62963a56.888889 56.888889 0 1 0 0 111.122963 55.561481 55.561481 0 1 0 0-111.122963z m319.601777 0a56.888889 56.888889 0 1 0 0 111.122963 55.599407 55.599407 0 1 0 0-111.122963z" fill="#c5c5c5"></path></g></g></svg>