<?xml version="1.0" standalone="no"?><!DOCTYPE svg PUBLIC "-//W3C//DTD SVG 1.1//EN" "http://www.w3.org/Graphics/SVG/1.1/DTD/svg11.dtd"><svg t="1487661225466" class="icon" style="" viewBox="0 0 1024 1024" version="1.1" xmlns="http://www.w3.org/2000/svg" p-id="8005" xmlns:xlink="http://www.w3.org/1999/xlink" width="80" height="80"><defs><style type="text/css"></style></defs><path d="M838.758047 185.971731 185.241953 185.971731c-29.434375 0-46.705785 16.784891-46.705785 46.705785l0 443.461694c0 29.920893 17.27141 46.705785 46.705785 46.705785l280.113078 0 0 70.058677L325.237677 792.90367c-14.717187 0-23.352892 8.392446-23.352892 23.352892l0 23.352892 420.108802 0L721.993586 816.134933c0-14.960447-8.635705-23.352892-23.352892-23.352892L558.64497 792.782041l0-70.058677 280.113078 0c29.434375 0 46.705785-16.784891 46.705785-46.705785L885.463832 232.677515C885.463832 202.756622 868.192422 185.971731 838.758047 185.971731L838.758047 185.971731 838.758047 185.971731 838.758047 185.971731zM485.302292 660.935503c0-14.960447 11.919705-27.001782 26.636893-27.001782 14.717187 0 26.636893 12.162965 26.636893 27.001782 0 14.960447-11.919705 27.123411-26.636893 27.123411C497.221998 687.937285 485.302292 675.89595 485.302292 660.935503L485.302292 660.935503 485.302292 660.935503 485.302292 660.935503zM185.241953 606.080532l0-373.403017 653.516095 0 0 373.403017L185.241953 606.080532 185.241953 606.080532 185.241953 606.080532zM185.241953 606.080532" p-id="8006" fill="#bfbfbf"></path></svg>